Coordinates
version=1
nRows=38
nColumns=12
inDegrees=yes

Units are S.I. units (second, meters, Newtons, ...)
Angles are in degrees

endheader
time	SC_y	SC_z	SC_x	AC_y	AC_z	AC_x	GH_y	GH_z	GH_yy	EL_x	PS_y
       0.0              -13.22          30.37          6.191          65.72         -9.981         -13.63          142.7          24.71         -134.9          42.66          31.47
  0.009941              -13.22          30.37          6.202          65.72         -9.978         -13.62          142.7           24.7         -134.9          42.67          31.49
   0.01988              -13.23          30.37          6.213          65.72         -9.975         -13.62          142.6           24.7         -134.9          42.68          31.51
   0.02982              -13.23          30.36          6.226          65.72         -9.972         -13.61          142.6           24.7         -134.9          42.69          31.53
   0.03976              -13.23          30.36          6.238          65.72         -9.968         -13.61          142.6           24.7         -134.9           42.7          31.55
    0.0497              -13.23          30.36          6.252          65.72         -9.965          -13.6          142.6           24.7         -134.9          42.71          31.57
   0.05964              -13.23          30.35          6.267          65.72         -9.961         -13.59          142.5          24.69         -134.9          42.72          31.59
   0.06958              -13.24          30.35          6.283          65.72         -9.957         -13.59          142.5          24.69         -134.9          42.73          31.62
   0.07953              -13.24          30.34            6.3          65.72         -9.952         -13.58          142.5          24.69         -134.9          42.75          31.65
   0.08947              -13.24          30.34          6.318          65.72         -9.947         -13.57          142.4          24.68         -134.9          42.76          31.68
   0.09941              -13.25          30.34          6.337          65.73         -9.942         -13.56          142.4          24.68         -134.9          42.78          31.71
    0.1093              -13.25          30.33          6.358          65.73         -9.936         -13.55          142.3          24.68         -134.9          42.79          31.74
    0.1193              -13.26          30.32          6.381          65.73          -9.93         -13.54          142.3          24.67         -135.0          42.81          31.78
    0.1292              -13.26          30.32          6.405          65.73         -9.924         -13.53          142.2          24.67         -135.0          42.83          31.82
    0.1392              -13.26          30.31          6.432          65.73         -9.917         -13.52          142.2          24.66         -135.0          42.85          31.87
    0.1491              -13.27          30.31           6.46          65.73         -9.909         -13.51          142.1          24.66         -135.0          42.87          31.91
    0.1591              -13.27           30.3          6.491          65.73           -9.9          -13.5          142.1          24.65         -135.0           42.9          31.96
     0.169              -13.28          30.29          6.525          65.73         -9.891         -13.48          142.0          24.65         -135.0          42.93          32.02
    0.1789              -13.29          30.28          6.562          65.73         -9.881         -13.47          141.9          24.64         -135.1          42.96          32.08
    0.1889              -13.29          30.27          6.603          65.74          -9.87         -13.45          141.8          24.63         -135.1          42.99          32.15
    0.1988               -13.3          30.26          6.647          65.74         -9.858         -13.43          141.8          24.62         -135.1          43.02          32.22
    0.2088              -13.31          30.25          6.696          65.74         -9.845         -13.41          141.7          24.61         -135.1          43.06           32.3
    0.2187              -13.32          30.24          6.751          65.74         -9.831         -13.38          141.6           24.6         -135.2          43.11          32.39
    0.2286              -13.33          30.22          6.811          65.74         -9.815         -13.36          141.4          24.59         -135.2          43.15          32.49
    0.2386              -13.34           30.2          6.877          65.75         -9.797         -13.33          141.3          24.58         -135.2          43.21           32.6
    0.2485              -13.36          30.19          6.952          65.75         -9.777          -13.3          141.1          24.57         -135.3          43.27          32.72
    0.2585              -13.37          30.17          7.035          65.75         -9.754         -13.26          141.0          24.55         -135.3          43.33          32.86
    0.2684              -13.39          30.14          7.129          65.75         -9.729         -13.22          140.8          24.54         -135.4          43.41          33.01
    0.2783              -13.41          30.12          7.234          65.76         -9.701         -13.17          140.6          24.52         -135.4          43.49          33.19
    0.2883              -13.43          30.09          7.355          65.76         -9.668         -13.12          140.3           24.5         -135.5          43.59          33.39
    0.2982              -13.45          30.06          7.492          65.77         -9.631         -13.06          140.1          24.47         -135.6           43.7          33.61
    0.3082              -13.48          30.02          7.649          65.77         -9.589         -12.99          139.7          24.44         -135.6          43.83          33.87
    0.3181              -13.51          29.97          7.831          65.78          -9.54         -12.91          139.4          24.41         -135.7          43.97          34.17
     0.328              -13.55          29.92          8.043          65.79         -9.483         -12.82          139.0          24.37         -135.9          44.14          34.52
     0.338               -13.6          29.86           8.29           65.8         -9.417         -12.71          138.5          24.33         -136.0          44.34          34.93
    0.3479              -13.65          29.79          8.581          65.81         -9.338         -12.58          137.9          24.27         -136.1          44.57          35.41
    0.3579              -13.71          29.71          8.928          65.82         -9.245         -12.43          137.2          24.21         -136.3          44.85          35.98
    0.3678              -13.78          29.61          9.343          65.84         -9.133         -12.25          136.4          24.13         -136.6          45.18          36.66
